<svg width="23" height="20" viewBox="0 0 23 20" fill="none" xmlns="http://www.w3.org/2000/svg">
<path d="M1.5 2.63626V7.54535M1.5 7.54535H6.50027M1.5 7.54535L5.85127 3.63546C7.12543 2.38477 8.74674 1.53043 10.5126 1.1792C12.2785 0.82797 14.1107 0.99542 15.7802 1.66063C17.4497 2.32584 18.8825 3.45931 19.8997 4.91942C20.9168 6.37952 21.4731 8.10152 21.499 9.87025C21.525 11.639 21.0195 13.376 20.0457 14.8643C19.0719 16.3526 17.6729 17.5261 16.0237 18.2383C14.3744 18.9505 12.5479 19.1698 10.7724 18.8687C8.99695 18.5675 7.35122 17.7595 6.04087 16.5453" stroke="#0271FF" stroke-width="2" stroke-linecap="round" stroke-linejoin="round"/>
</svg>
